<svg width="23" height="23" viewBox="0 0 23 23" fill="none" xmlns="http://www.w3.org/2000/svg">
<path fill-rule="evenodd" clip-rule="evenodd" d="M3.55269 10.7114C3.16998 10.7641 2.875 11.0971 2.875 11.4999C2.875 11.9394 3.22605 12.2956 3.65909 12.2956L17.4416 12.2956L12.4628 17.328L12.3867 17.417C12.1583 17.7281 12.1827 18.1702 12.4605 18.4533C12.7661 18.7647 13.2626 18.7657 13.5694 18.4556L19.8832 12.0746C19.9208 12.038 19.9548 11.9977 19.9847 11.9543C20.1984 11.6435 20.1683 11.2124 19.8944 10.9356L13.5694 4.54435L13.4813 4.4675C13.1738 4.23703 12.7383 4.26367 12.4605 4.54678C12.1549 4.85819 12.156 5.36201 12.4629 5.67209L17.4428 10.7042L3.65909 10.7042L3.55269 10.7114Z" fill="#001423"/>
</svg>
